<svg height="64.25" viewBox="0 0 112.679 16.999" width="425.873" xmlns="http://www.w3.org/2000/svg"><path d="M6.789 0C2.481 0 0 2.72 0 7.475c0 4.82 2.48 7.573 6.789 7.573h.347v-1.24h-.232c-3.505 0-5.481-2.315-5.481-6.333 0-3.953 1.976-6.235 5.481-6.235h.232V0zm51.965 0v1.24h.232c2.728 0 4.266 2.282 4.266 6.235 0 4.018-1.538 6.333-4.266 6.333h-.232v1.24h.34c3.546 0 5.58-2.753 5.58-7.573C64.674 2.72 62.64 0 59.094 0zM10.815 3.671l.174 3.167-2.927-1.24-.496 1.372 3.05.934-2.132 2.365 1.116.926 1.943-2.687 1.943 2.687 1.116-.926-2.133-2.365 3.05-.934-.495-1.372-2.927 1.24.173-3.167zm100.773.794a1.09 1.09 0 1 0 0 2.183 1.09 1.09 0 1 0 0-2.183zm-.703 6.83L110.224 17h1.314l.893-5.706z" fill="#fff"/><path d="M30.262 1.984V4.63h-2.365v1.274h2.365v4.159c0 2.406 1.075 3.497 3.539 3.497.802 0 1.48-.066 2.232-.198l-.165-1.274c-.72.108-1.306.174-1.902.174-1.587 0-2.282-.711-2.282-2.257V5.904h4.019V4.63h-4.019V1.984zm-6.846 2.48c-3.233 0-4.597.778-4.597 2.614 0 1.248.752 1.852 2.472 2.282l1.993.504c.777.198 1.132.521 1.132 1.133 0 .885-.843 1.265-2.802 1.265-.786 0-1.613-.083-2.762-.273l-.165 1.323c.752.182 1.62.248 2.927.248 3 0 4.282-.769 4.282-2.588 0-1.348-.793-2.034-2.612-2.472l-1.596-.389c-.967-.24-1.39-.52-1.39-1.083 0-.893.91-1.265 3.068-1.265.612 0 1.249.033 2.15.116l.149-1.249a14.628 14.628 0 0 0-2.249-.165zm30.518 0c-1.53 0-2.348.795-2.505 2.415h-.157l-.248-2.249h-2.87v1.274h1.72v6.217h-2.05v1.275h5.788v-1.274h-2.316V9.625c0-2.505.786-3.91 2.382-3.91 1.017 0 1.455.595 1.455 2.042h1.422c0-2.315-.794-3.291-2.62-3.291zm-14.66.084-.165 1.29 1.976.049c1.844.033 2.72.678 2.72 2.158v.389c-.529-.1-1.157-.15-1.86-.15-2.53 0-3.91.985-3.91 2.837 0 1.554 1.025 2.439 2.819 2.439 1.678 0 2.852-.728 3.018-2.017h.148l.083 1.934 2.58-.082v-1.109l-1.497-.157V8.251c0-2.431-1.33-3.638-4.208-3.68zm2.63 4.91c.636 0 1.298 0 1.901.092v.727c0 1.084-1.033 2.092-2.761 2.092-1.042 0-1.645-.48-1.645-1.323 0-1.05.851-1.587 2.505-1.587z" fill="#579bd7"/><path d="M73.976.992v5.35h-.132c-.182-1.2-1.1-1.877-2.53-1.877-2.307 0-3.514 1.587-3.514 4.63 0 2.935 1.199 4.465 3.497 4.465 1.497 0 2.398-.72 2.563-1.91h.125l.173 1.827 1.248-.066V.992zm25.739.992V4.63H97.35v1.274h2.365v4.159c0 2.406 1.075 3.497 3.539 3.497.802 0 1.48-.066 2.232-.198l-.165-1.274c-.72.108-1.307.174-1.902.174-1.588 0-2.282-.711-2.282-2.257V5.904h4.018V4.63h-4.018V1.984zm-6.846 2.48c-3.233 0-4.598.778-4.598 2.614 0 1.248.753 1.852 2.473 2.282l1.992.504c.778.198 1.133.521 1.133 1.133 0 .885-.843 1.265-2.803 1.265-.785 0-1.612-.083-2.761-.273l-.166 1.323c.753.182 1.62.248 2.927.248 3.002 0 4.283-.769 4.283-2.588 0-1.348-.794-2.034-2.613-2.472l-1.595-.389c-.968-.24-1.39-.52-1.39-1.083 0-.893.91-1.265 3.068-1.265.612 0 1.249.033 2.15.116l.149-1.249a14.628 14.628 0 0 0-2.25-.165zm-14.734.166v5.788c0 2 1.075 3.142 2.968 3.142 1.248 0 2.141-.67 2.447-1.852h.14l.108 1.77 2.49-.083v-1.109l-1.208-.15V4.629h-1.43v4.713c0 2.109-.745 2.919-2.192 2.919-1.198 0-1.893-.662-1.893-1.844V4.629zm-6.532 1.083c1.563 0 2.373 1.059 2.373 3.084v.43c0 2.026-.81 3.084-2.364 3.084-1.571 0-2.39-1.1-2.39-3.216 0-2.224.819-3.382 2.381-3.382z" fill="#d8dcb4"/></svg>
