<svg height="60.5" viewBox="0 0 24.912 16.007" width="94.156" xmlns="http://www.w3.org/2000/svg"><path d="m5.92 10.203 1.116-.926-2.133-2.365 3.051-.934-.496-1.373-2.927 1.24.174-3.166H3.249l.174 3.167-2.927-1.24L0 5.977l3.051.934L.918 9.277l1.116.926 1.943-2.687z" fill="#579bd7"/><path d="M13.295 12.568c1.497 0 2.398-.72 2.563-1.91h.124l.174 1.827 1.249-.066V0h-1.43v5.35h-.133c-.182-1.2-1.1-1.877-2.53-1.877-2.307 0-3.514 1.587-3.514 4.63 0 2.935 1.199 4.465 3.497 4.465zm2.68-4.333c0 2.026-.811 3.084-2.366 3.084-1.57 0-2.389-1.1-2.389-3.216 0-2.224.819-3.382 2.381-3.382s2.373 1.058 2.373 3.084z" fill="#d8dcb4"/><path d="M22.456 16.007h1.315l.893-5.705h-1.546zm1.365-10.352a1.09 1.09 0 1 0 0-2.182 1.09 1.09 0 1 0 0 2.182z" fill="#fff"/></svg>
